<svg width="18" height="18" viewBox="0 0 18 18" fill="none" xmlns="http://www.w3.org/2000/svg">
<g id="Icon/32px/Nikto">
<path id="Vector" d="M9 2.25C10.641 2.25 12.2148 2.83974 13.3752 3.88949C14.5356 4.93923 15.1875 6.363 15.1875 7.84756C15.1875 12.128 11.1838 15.75 9 15.75C6.81618 15.75 2.8125 12.128 2.8125 7.84756C2.8125 6.363 3.4644 4.93923 4.62478 3.88949C5.78516 2.83974 7.35897 2.25 9 2.25ZM13.0037 8.83537C12.5443 8.83535 12.0901 8.92274 11.6705 9.09185C11.2509 9.26096 10.8753 9.50801 10.5681 9.81697C10.2609 10.1259 10.029 10.4899 9.88739 10.8852C9.74578 11.2805 9.69765 11.6984 9.74614 12.1116C10.232 12.1583 10.7232 12.106 11.1838 11.9587C11.6445 11.8114 12.0628 11.5727 12.4083 11.2602C12.7538 10.9477 13.0176 10.5692 13.1805 10.1525C13.3433 9.73574 13.401 9.29135 13.3494 8.85183C13.2346 8.84089 13.1192 8.8354 13.0037 8.83537ZM4.99632 8.83537C4.87985 8.83537 4.76411 8.84063 4.65055 8.85183C4.59896 9.29135 4.65671 9.73574 4.81955 10.1525C4.98239 10.5692 5.24621 10.9477 5.59168 11.2602C5.93715 11.5727 6.35553 11.8114 6.81616 11.9587C7.27679 12.106 7.76802 12.1583 8.25386 12.1116C8.30235 11.6984 8.25422 11.2805 8.11261 10.8852C7.971 10.4899 7.73906 10.1259 7.43187 9.81697C7.12467 9.50801 6.74908 9.26096 6.32949 9.09185C5.90989 8.92274 5.45568 8.83535 4.99632 8.83537Z" fill="#757F99"/>
</g>
</svg>