<svg width="32" height="32" viewBox="0 0 32 32" fill="none" xmlns="http://www.w3.org/2000/svg">
<path fill-rule="evenodd" clip-rule="evenodd" d="M4 12.3017V4.00016L12.3015 4.00032V5.60468H5.60396V12.3017H4ZM19.6981 5.60452V4.00016L28 4V12.3016H26.3956V5.60452H19.6981ZM4 28V19.6984L5.60414 19.6986V26.3961H12.3017V28H4ZM26.395 26.3959V19.6984L27.9996 19.6983V27.9998H19.6975V26.3959H26.395ZM6.61818 16C6.61818 10.8182 10.8185 6.61818 16 6.61818C21.1818 6.61818 25.3818 10.8185 25.3818 16C25.3818 21.1818 21.1813 25.3818 16 25.3818C10.8182 25.3818 6.61818 21.1813 6.61818 16ZM21.4237 10.2236C20.406 9.26845 19.1545 8.59849 17.7952 8.28087C17.7832 8.28476 17.7708 8.28673 17.7581 8.28874C17.7508 8.2899 17.7435 8.29107 17.7361 8.29261C18.7942 9.02875 19.6877 9.97977 20.3657 11.0782C20.7453 10.8269 21.0934 10.5341 21.4237 10.2236ZM14.238 8.28851C14.2285 8.28734 14.2189 8.28616 14.2098 8.28369C12.8484 8.59951 11.5952 9.26841 10.5757 10.2236C10.9061 10.5342 11.2528 10.8269 11.6338 11.0782C12.3116 9.97975 13.2053 9.02884 14.2634 8.29261C14.2551 8.29061 14.2465 8.28956 14.238 8.28851ZM15.2782 12.3558V9.36617C14.3252 9.98994 13.511 10.8039 12.9021 11.7652C13.6427 12.08 14.4424 12.2805 15.2782 12.3558ZM19.0969 11.765C18.4882 10.8039 17.6739 9.9901 16.7215 9.36617V12.3556C17.5568 12.2804 18.3565 12.0798 19.0969 11.765ZM10.9623 12.3585C10.4788 12.0494 10.0399 11.6857 9.62273 11.2976C8.76102 12.4604 8.23343 13.8371 8.09717 15.278H10.2622C10.3416 14.2503 10.5784 13.2662 10.9623 12.3585ZM23.8996 15.278C23.7639 13.8385 23.2372 12.4628 22.3769 11.3005C21.9597 11.6871 21.5195 12.0493 21.0375 12.3584C21.4213 13.2661 21.6582 14.2504 21.7375 15.278H23.8996ZM15.2786 13.7962C14.2074 13.7121 13.1856 13.4584 12.2446 13.0454C11.9631 13.747 11.7783 14.4957 11.706 15.278H15.2786V13.7962ZM20.2942 15.2781C20.2218 14.4958 20.0372 13.7469 19.7558 13.0454C18.8146 13.4584 17.7929 13.7123 16.7223 13.7963V15.2781H20.2942ZM10.263 16.7219H8.10086C8.23146 18.1085 8.72473 19.4366 9.53145 20.5726C9.7979 20.3139 10.1523 20.1125 10.4985 19.9159C10.6582 19.8251 10.8162 19.7354 10.963 19.6414C10.5791 18.7338 10.3424 17.7494 10.263 16.7219ZM15.279 16.7219H11.7064C11.7788 17.5042 11.9636 18.2531 12.245 18.9545C13.186 18.5415 14.2078 18.2877 15.279 18.2042V16.7219ZM20.2944 16.7219H16.7224L16.7221 18.2042C17.7931 18.2878 18.8149 18.5416 19.7559 18.9545C20.0374 18.253 20.2219 17.5042 20.2944 16.7219ZM23.9028 16.7219H21.7378C21.6584 17.7496 21.4218 18.7336 21.0379 19.6413C21.5212 19.9505 21.9516 20.3226 22.3684 20.7111C23.2352 19.5464 23.7657 18.1667 23.9028 16.7219ZM15.279 22.6339V19.6443C14.4431 19.7195 13.6434 19.9203 12.9029 20.2351C13.512 21.1962 14.3262 22.01 15.279 22.6339ZM19.0977 20.2349C18.3573 19.9201 17.5576 19.7196 16.7223 19.6443V22.6337C17.6746 22.0099 18.4888 21.1961 19.0977 20.2349ZM14.264 23.7073C13.206 22.9712 12.3124 22.0202 11.6345 20.9217C11.2549 21.1731 10.9143 21.4706 10.5849 21.782C11.6011 22.7338 12.8493 23.4019 14.2048 23.719C14.2167 23.7152 14.2291 23.7132 14.2417 23.7112C14.2491 23.7101 14.2566 23.7089 14.264 23.7073ZM21.4246 21.7763C21.0943 21.4658 20.7462 21.1731 20.3665 20.9217C19.6887 22.0202 18.7948 22.9712 17.7367 23.7074C17.745 23.7094 17.7536 23.7105 17.7622 23.7115C17.7717 23.7127 17.7812 23.7139 17.7903 23.7163C19.1517 23.4005 20.405 22.7315 21.4246 21.7763Z" fill="#757F99"/>
</svg>
