<svg width="32" height="32" viewBox="0 0 32 32" fill="none" xmlns="http://www.w3.org/2000/svg">
<g id="Icon/32px/Nikto">
<path id="Vector" d="M16 4C18.9174 4 21.7153 5.04843 23.7782 6.91464C25.8411 8.78086 27 11.312 27 13.9512C27 21.561 19.8824 28 16 28C12.1176 28 5 21.561 5 13.9512C5 11.312 6.15893 8.78086 8.22183 6.91464C10.2847 5.04843 13.0826 4 16 4ZM23.1176 15.7073C22.301 15.7073 21.4935 15.8626 20.7476 16.1633C20.0016 16.4639 19.3339 16.9031 18.7878 17.4524C18.2417 18.0017 17.8293 18.6487 17.5776 19.3515C17.3258 20.0542 17.2403 20.7971 17.3265 21.5317C18.1902 21.6147 19.0635 21.5218 19.8824 21.2599C20.7013 20.998 21.4451 20.5737 22.0592 20.0181C22.6734 19.4625 23.1424 18.7896 23.4319 18.0488C23.7214 17.308 23.8241 16.5179 23.7324 15.7366C23.5282 15.7171 23.323 15.7074 23.1176 15.7073ZM8.88235 15.7073C8.67529 15.7073 8.46953 15.7167 8.26765 15.7366C8.17593 16.5179 8.27859 17.308 8.56808 18.0488C8.85758 18.7896 9.32659 19.4625 9.94076 20.0181C10.5549 20.5737 11.2987 20.998 12.1176 21.2599C12.9365 21.5218 13.8098 21.6147 14.6735 21.5317C14.7597 20.7971 14.6742 20.0542 14.4224 19.3515C14.1707 18.6487 13.7583 18.0017 13.2122 17.4524C12.6661 16.9031 11.9984 16.4639 11.2524 16.1633C10.5065 15.8626 9.69898 15.7073 8.88235 15.7073Z" fill="white"/>
</g>
</svg>